<svg width="214" height="161" viewBox="0 0 214 161" fill="none" xmlns="http://www.w3.org/2000/svg">
<rect x="0.923584" width="212.153" height="161" rx="16" fill="#E7E0EB"/>
<path d="M62.6 46V32H68.7C69.8067 32 70.7467 32.4133 71.52 33.24C72.3067 34.0533 72.7 35.0733 72.7 36.3C72.7 37.5267 72.3067 38.5533 71.52 39.38C70.7467 40.1933 69.8067 40.6 68.7 40.6H64.2V46H62.6ZM64.2 39.1H68.7C69.3667 39.1 69.9333 38.84 70.4 38.32C70.8667 37.8 71.1 37.1267 71.1 36.3C71.1 35.4733 70.8667 34.8 70.4 34.28C69.9333 33.76 69.3667 33.5 68.7 33.5H64.2V39.1ZM75.0953 46V36H76.3953L76.5953 37H76.6953C76.9353 36.6533 77.182 36.4 77.4353 36.24C77.702 36.08 78.0886 36 78.5953 36H80.2953V37.4H78.7953C78.0886 37.4 77.542 37.5933 77.1553 37.98C76.782 38.3533 76.5953 38.8933 76.5953 39.6V46H75.0953ZM89.1216 44.76C88.2149 45.72 87.0749 46.2 85.7016 46.2C84.3282 46.2 83.1816 45.72 82.2616 44.76C81.3549 43.7867 80.9016 42.5333 80.9016 41C80.9016 39.4667 81.3549 38.22 82.2616 37.26C83.1816 36.2867 84.3282 35.8 85.7016 35.8C87.0749 35.8 88.2149 36.2867 89.1216 37.26C90.0416 38.22 90.5016 39.4667 90.5016 41C90.5016 42.5333 90.0416 43.7867 89.1216 44.76ZM83.3416 43.74C83.9816 44.4467 84.7682 44.8 85.7016 44.8C86.6349 44.8 87.4149 44.4467 88.0416 43.74C88.6816 43.0333 89.0016 42.12 89.0016 41C89.0016 39.88 88.6816 38.9667 88.0416 38.26C87.4149 37.5533 86.6349 37.2 85.7016 37.2C84.7682 37.2 83.9816 37.5533 83.3416 38.26C82.7149 38.9667 82.4016 39.88 82.4016 41C82.4016 42.12 82.7149 43.0333 83.3416 43.74ZM92.693 50V36H93.993L94.193 37.4H94.293C95.133 36.3333 96.1996 35.8 97.493 35.8C98.813 35.8 99.9063 36.2867 100.773 37.26C101.653 38.22 102.093 39.4667 102.093 41C102.093 42.5333 101.653 43.7867 100.773 44.76C99.9063 45.72 98.813 46.2 97.493 46.2C96.1996 46.2 95.133 45.6667 94.293 44.6H94.193V50H92.693ZM95.133 43.74C95.7596 44.4467 96.513 44.8 97.393 44.8C98.273 44.8 99.0263 44.4467 99.653 43.74C100.28 43.0333 100.593 42.12 100.593 41C100.593 39.88 100.28 38.9667 99.653 38.26C99.0263 37.5533 98.273 37.2 97.393 37.2C96.513 37.2 95.7596 37.5533 95.133 38.26C94.5063 38.9667 94.193 39.88 94.193 41C94.193 42.12 94.5063 43.0333 95.133 43.74ZM111.195 43.2H112.795C112.448 44.16 111.901 44.9 111.155 45.42C110.421 45.94 109.535 46.2 108.495 46.2C107.121 46.2 105.975 45.72 105.055 44.76C104.148 43.7867 103.695 42.5333 103.695 41C103.695 39.4667 104.148 38.22 105.055 37.26C105.975 36.2867 107.121 35.8 108.495 35.8C109.815 35.8 110.908 36.2533 111.775 37.16C112.655 38.0667 113.095 39.2133 113.095 40.6C113.095 40.8133 113.075 41.1 113.035 41.46L112.995 41.7H105.195C105.301 42.6333 105.661 43.3867 106.275 43.96C106.901 44.52 107.641 44.8 108.495 44.8C109.095 44.8 109.628 44.66 110.095 44.38C110.575 44.1 110.941 43.7067 111.195 43.2ZM105.195 40.3H111.595C111.541 39.3933 111.221 38.6533 110.635 38.08C110.061 37.4933 109.348 37.2 108.495 37.2C107.601 37.2 106.855 37.4867 106.255 38.06C105.655 38.6333 105.301 39.38 105.195 40.3ZM115.291 46V36H116.591L116.791 37H116.891C117.131 36.6533 117.377 36.4 117.631 36.24C117.897 36.08 118.284 36 118.791 36H120.491V37.4H118.991C118.284 37.4 117.737 37.5933 117.351 37.98C116.977 38.3533 116.791 38.8933 116.791 39.6V46H115.291ZM122.788 44.3V37.4H121.188V36H122.788V33.2H124.288V36H126.588V37.4H124.288V44C124.288 44.4 124.488 44.6 124.888 44.6H126.588V46H124.588C124.028 46 123.588 45.8467 123.268 45.54C122.948 45.2333 122.788 44.82 122.788 44.3ZM128.984 46V36H130.484V46H128.984ZM128.884 33.9V32.2H130.584V33.9H128.884ZM140.277 43.2H141.877C141.53 44.16 140.983 44.9 140.237 45.42C139.503 45.94 138.617 46.2 137.577 46.2C136.203 46.2 135.057 45.72 134.137 44.76C133.23 43.7867 132.777 42.5333 132.777 41C132.777 39.4667 133.23 38.22 134.137 37.26C135.057 36.2867 136.203 35.8 137.577 35.8C138.897 35.8 139.99 36.2533 140.857 37.16C141.737 38.0667 142.177 39.2133 142.177 40.6C142.177 40.8133 142.157 41.1 142.117 41.46L142.077 41.7H134.277C134.383 42.6333 134.743 43.3867 135.357 43.96C135.983 44.52 136.723 44.8 137.577 44.8C138.177 44.8 138.71 44.66 139.177 44.38C139.657 44.1 140.023 43.7067 140.277 43.2ZM134.277 40.3H140.677C140.623 39.3933 140.303 38.6533 139.717 38.08C139.143 37.4933 138.43 37.2 137.577 37.2C136.683 37.2 135.937 37.4867 135.337 38.06C134.737 38.6333 134.383 39.38 134.277 40.3ZM143.573 43.1H145.073C145.073 43.5667 145.293 43.9667 145.733 44.3C146.186 44.6333 146.799 44.8 147.573 44.8C148.333 44.8 148.919 44.66 149.333 44.38C149.759 44.0867 149.973 43.7267 149.973 43.3C149.973 42.5133 149.406 42.0133 148.273 41.8L146.573 41.5C144.706 41.1933 143.773 40.26 143.773 38.7C143.773 37.86 144.093 37.1667 144.733 36.62C145.373 36.0733 146.286 35.8 147.473 35.8C148.633 35.8 149.573 36.1067 150.293 36.72C151.013 37.3333 151.373 38.06 151.373 38.9H149.873C149.873 38.4333 149.653 38.0333 149.213 37.7C148.786 37.3667 148.206 37.2 147.473 37.2C146.753 37.2 146.206 37.3467 145.833 37.64C145.459 37.92 145.273 38.2733 145.273 38.7C145.273 39.4333 145.806 39.9 146.873 40.1L148.573 40.4C149.573 40.5867 150.306 40.92 150.773 41.4C151.239 41.8667 151.473 42.5 151.473 43.3C151.473 44.14 151.133 44.8333 150.453 45.38C149.786 45.9267 148.826 46.2 147.573 46.2C146.373 46.2 145.406 45.8933 144.673 45.28C143.939 44.6667 143.573 43.94 143.573 43.1Z" fill="#27292C"/>
<path d="M54.88 110.84H61.6C61.984 112.632 62.9013 114.147 64.352 115.384C65.8453 116.621 67.808 117.24 70.24 117.24C72.9707 117.24 75.1467 116.429 76.768 114.808C78.3893 113.187 79.2 111.011 79.2 108.28C79.2 105.72 78.368 103.651 76.704 102.072C75.0827 100.451 72.928 99.64 70.24 99.64C67.04 99.64 64.5867 100.707 62.88 102.84H55.84L58.4 78.2H83.36V84.6H64.16L62.88 95.48H63.2C65.504 93.9867 68.1707 93.24 71.2 93.24C75.424 93.24 78.9227 94.6693 81.696 97.528C84.512 100.344 85.92 103.928 85.92 108.28C85.92 112.76 84.448 116.451 81.504 119.352C78.6027 122.211 74.848 123.64 70.24 123.64C67.7227 123.64 65.4613 123.235 63.456 122.424C61.4933 121.613 59.936 120.547 58.784 119.224C57.632 117.901 56.736 116.536 56.096 115.128C55.4987 113.72 55.0933 112.291 54.88 110.84ZM100.653 114.68C102.359 116.387 104.493 117.24 107.053 117.24C109.613 117.24 111.746 116.387 113.453 114.68C115.159 112.973 116.013 110.84 116.013 108.28C116.013 105.72 115.159 103.587 113.453 101.88C111.746 100.173 109.613 99.32 107.053 99.32C104.493 99.32 102.359 100.173 100.653 101.88C98.9458 103.587 98.0925 105.72 98.0925 108.28C98.0925 110.84 98.9458 112.973 100.653 114.68ZM93.9325 99.32L107.373 78.2H115.053L105.133 93.56H105.453L106.285 93.432C107.309 93.304 107.991 93.24 108.333 93.24C112.343 93.24 115.735 94.712 118.509 97.656C121.325 100.557 122.733 104.099 122.733 108.28C122.733 112.632 121.239 116.28 118.253 119.224C115.266 122.168 111.533 123.64 107.053 123.64C102.573 123.64 98.8392 122.168 95.8525 119.224C92.8658 116.28 91.3725 112.632 91.3725 108.28C91.3725 105.037 92.2258 102.051 93.9325 99.32ZM137.153 114.68C138.859 116.387 140.993 117.24 143.553 117.24C146.113 117.24 148.246 116.387 149.953 114.68C151.659 112.973 152.513 110.84 152.513 108.28C152.513 105.72 151.659 103.587 149.953 101.88C148.246 100.173 146.113 99.32 143.553 99.32C140.993 99.32 138.859 100.173 137.153 101.88C135.446 103.587 134.593 105.72 134.593 108.28C134.593 110.84 135.446 112.973 137.153 114.68ZM130.433 99.32L143.873 78.2H151.553L141.633 93.56H141.953L142.785 93.432C143.809 93.304 144.491 93.24 144.833 93.24C148.843 93.24 152.235 94.712 155.009 97.656C157.825 100.557 159.233 104.099 159.233 108.28C159.233 112.632 157.739 116.28 154.753 119.224C151.766 122.168 148.033 123.64 143.553 123.64C139.073 123.64 135.339 122.168 132.353 119.224C129.366 116.28 127.873 112.632 127.873 108.28C127.873 105.037 128.726 102.051 130.433 99.32Z" fill="#0A0700"/>
</svg>
