<svg width="12" height="12" viewBox="0 0 12 12" fill="none" xmlns="http://www.w3.org/2000/svg">
<path d="M10.7799 5.37027L10.0999 4.58027C9.96994 4.43027 9.86494 4.15027 9.86494 3.95027V3.10027C9.86494 2.57027 9.42994 2.13527 8.89994 2.13527H8.04994C7.85494 2.13527 7.56994 2.03027 7.41994 1.90027L6.62994 1.22027C6.28494 0.925273 5.71994 0.925273 5.36994 1.22027L4.58494 1.90527C4.43494 2.03027 4.14994 2.13527 3.95494 2.13527H3.08994C2.55994 2.13527 2.12494 2.57027 2.12494 3.10027V3.95527C2.12494 4.15027 2.01994 4.43027 1.89494 4.58027L1.21994 5.37527C0.929941 5.72027 0.929941 6.28027 1.21994 6.62527L1.89494 7.42027C2.01994 7.57027 2.12494 7.85027 2.12494 8.04527V8.90027C2.12494 9.43027 2.55994 9.86527 3.08994 9.86527H3.95494C4.14994 9.86527 4.43494 9.97027 4.58494 10.1003L5.37494 10.7803C5.71994 11.0753 6.28494 11.0753 6.63494 10.7803L7.42494 10.1003C7.57494 9.97027 7.85494 9.86527 8.05494 9.86527H8.90494C9.43494 9.86527 9.86994 9.43027 9.86994 8.90027V8.05027C9.86994 7.85527 9.97494 7.57027 10.1049 7.42027L10.7849 6.63027C11.0749 6.28527 11.0749 5.71527 10.7799 5.37027ZM8.07994 5.05527L5.66494 7.47027C5.59494 7.54027 5.49994 7.58027 5.39994 7.58027C5.29994 7.58027 5.20494 7.54027 5.13494 7.47027L3.92494 6.26027C3.77994 6.11527 3.77994 5.87527 3.92494 5.73027C4.06994 5.58527 4.30994 5.58527 4.45494 5.73027L5.39994 6.67527L7.54994 4.52527C7.69494 4.38027 7.93494 4.38027 8.07994 4.52527C8.22494 4.67027 8.22494 4.91027 8.07994 5.05527Z" fill="#1E9114"/>
</svg>
